# xmcd
# 
# Track frame offsets:
#     150
#     20995
#     43327
#     76735
#     105375
#     123237
#     155202
#     170135
#     199647
# 
# Disc length: 3051
# 
# Revision: 1
# Processed by: cddbd v1.5.2PL0 Copyright (c) Steve Scherf et al.
# Submitted via: BonkEnc v1.0.8
# 
DISCID=770be909
DTITLE=南博, 水谷浩章, 竹野昌邦, ツノ犬 - Bird in Berlin
DYEAR=1997
DGENRE=Contemporary Jazz
TTITLE0=Solid Conclusion
TTITLE1=The Space In The Night
TTITLE2=Winter
TTITLE3=Ash Line
TTITLE4=Everything I Love
TTITLE5=Arrested Thoughts
TTITLE6=The Back Yard Party
TTITLE7=Stillness(For Island)
TTITLE8=Bird in Berlin
EXTD=YEAR: 1998
EXTT0=
EXTT1=
EXTT2=
EXTT3=
EXTT4=
EXTT5=
EXTT6=
EXTT7=
EXTT8=
PLAYORDER=
